<?xml version="1.0" encoding="UTF-8" standalone="no"?>
<!-- Created with Inkscape (http://www.inkscape.org/) -->

<svg
   xmlns:dc="http://purl.org/dc/elements/1.1/"
   xmlns:cc="http://creativecommons.org/ns#"
   xmlns:rdf="http://www.w3.org/1999/02/22-rdf-syntax-ns#"
   xmlns:svg="http://www.w3.org/2000/svg"
   xmlns="http://www.w3.org/2000/svg"
   xmlns:sodipodi="http://sodipodi.sourceforge.net/DTD/sodipodi-0.dtd"
   xmlns:inkscape="http://www.inkscape.org/namespaces/inkscape"
   width="793.70081"
   height="1122.5197"
   viewBox="0 0 210 297"
   version="1.1"
   id="svg10657"
   inkscape:version="0.92.3 (2405546, 2018-03-11)"
   sodipodi:docname="lamp.2.svg">
  <defs
     id="defs10651" />
  <sodipodi:namedview
     id="base"
     pagecolor="#ffffff"
     bordercolor="#666666"
     borderopacity="1.0"
     inkscape:pageopacity="0.0"
     inkscape:pageshadow="2"
     inkscape:zoom="5.6"
     inkscape:cx="14.353222"
     inkscape:cy="12.941189"
     inkscape:document-units="px"
     inkscape:current-layer="layer1"
     showgrid="true"
     units="px"
     inkscape:window-width="1450"
     inkscape:window-height="1194"
     inkscape:window-x="426"
     inkscape:window-y="635"
     inkscape:window-maximized="0">
    <inkscape:grid
       type="xygrid"
       id="grid11202"
       spacingx="0.13229167"
       spacingy="0.13229167" />
  </sodipodi:namedview>
  <metadata
     id="metadata10654">
    <rdf:RDF>
      <cc:Work
         rdf:about="">
        <dc:format>image/svg+xml</dc:format>
        <dc:type
           rdf:resource="http://purl.org/dc/dcmitype/StillImage" />
        <dc:title></dc:title>
      </cc:Work>
    </rdf:RDF>
  </metadata>
  <g
     inkscape:label="Layer 1"
     inkscape:groupmode="layer"
     id="layer1">
    <path
       style="fill:#48587a;stroke:none;stroke-width:0.26458332px;stroke-linecap:butt;stroke-linejoin:miter;stroke-opacity:1;fill-opacity:1"
       d="m -0.79375002,297 v -0.52917 l -0.26458328,-0.79375 -0.7937501,-1.05833 -0.7937499,-0.26458 -1.3229166,-0.26459 v -0.52916 h -0.2645834 v -0.52917 l -0.79375,-0.26458 -0.79375,-3.43959 2.1166667,-0.79375 0.2645833,-0.79375 0.2645833,0.79375 2.1166667,0.79375 -0.7937501,3.43959 -0.7937499,0.26458 v 0.52917 h -0.2645833 v 0.26458 l 1.5874999,0.26458 0.79375004,0.52917 L 0,295.4125 0.52916666,294.61875 1.3229167,294.08958 2.9104166,293.825 v -0.26458 H 2.6458333 v -0.52917 L 1.8520834,292.76667 1.0583333,289.32708 3.175,288.53333 l 0.2645833,-0.79375 0.2645833,0.79375 2.1166667,0.79375 -0.79375,3.43959 -0.79375,0.26458 v 0.52917 H 3.96875 v 0.52916 l -1.3229167,0.26459 -0.7937499,0.26458 -0.7937501,1.05833 -0.26458328,0.79375 V 297 Z"
       id="path16314"
       inkscape:connector-curvature="0" />
  </g>
</svg>
